<svg width="63" height="31" viewBox="0 0 63 31" fill="none" xmlns="http://www.w3.org/2000/svg">
<path d="M12.6 30.7226H6.10001C4.70001 30.7226 3.20001 30.4264 1.90001 29.834C0.800009 29.2417 0.1 28.1557 0 26.8723C0 25.4901 0.1 24.1079 0.5 22.7258C1 20.3563 1.5 17.9869 2 15.7162C2.3 14.4328 2.5 13.1493 2.8 11.9646C2.8 11.7672 3.1 11.5697 3.3 11.5697H10.3C10.5 11.5697 10.7 11.471 10.6 11.8659C9.80001 15.42 9.1 19.0729 8.3 22.7258C8.2 23.1207 8.40001 23.1207 8.60001 23.1207H19.5C19.9 23.1207 20 22.8245 20 22.627C20.2 21.6398 20.4 20.5538 20.6 19.5665C20.7 19.1716 20.4 19.2703 20.2 19.2703H13.5C13.1 19.2703 12.9 19.3691 13 18.678C13.5 16.4073 14 14.1366 14.4 11.7672C14.5 11.471 14.6 11.471 14.8 11.471C17.7 11.471 20.7 11.3723 23.6 11.471C24.8 11.471 26 11.7672 27.1 12.3595C28.2 12.9519 28.9 14.0379 28.9 15.3213C28.9 16.7035 28.8 18.0856 28.4 19.4678C27.9 21.4423 27.6 23.4168 27 25.2926C26.4 27.7608 24.4 29.7353 21.8 30.2289C20.2 30.5251 18.6 30.7226 17 30.6238C15.7 30.7226 14.1 30.7226 12.6 30.7226ZM41.9 11.5697C41.4 13.8404 41 16.0124 40.5 18.1844C40.2 19.6652 39.9 21.1461 39.5 22.7258C39.4 23.1207 39.4 23.2194 39.8 23.2194H50.7C51.1 23.2194 51.2 22.9232 51.2 22.7258C51.4 21.7385 51.6 20.6525 51.8 19.6652C51.9 19.2703 51.6 19.3691 51.4 19.3691H44.6C44.2 19.3691 44 19.4678 44.1 18.8754C44.6 16.6047 45.1 14.334 45.5 11.9646C45.6 11.6684 45.7 11.6684 45.9 11.6684C48.8 11.6684 51.8 11.5697 54.7 11.6684C55.9 11.6684 57.1 11.9646 58.2 12.557C59.3 13.1493 60 14.2353 60.1 15.5188C60.1 16.9009 60 18.2831 59.5 19.6652C59 21.6398 58.7 23.6143 58.1 25.4901C57.5 27.9582 55.5 29.9328 52.9 30.4264C51.7 30.7226 50.6 30.8213 49.4 30.8213H37.3C35.8 30.92 34.3 30.6238 32.9 29.9328C31.8 29.3404 31 28.2544 31 26.971C31 25.5888 31.2 24.1079 31.6 22.7258C32.1 20.3563 32.6 17.9869 33.1 15.7162C33.4 14.4328 33.6 13.1493 33.9 11.9646C33.9 11.7672 34.1 11.5697 34.3 11.5697H41.9Z" fill="#D71112"/>
<path d="M3.90001 7.71915C4.10001 6.53444 4.4 5.44845 4.8 4.36246C5.6 2.28921 7.40001 0.80832 9.60001 0.413416C10.8 0.117237 11.9 0.0185111 13.1 0.0185111H25.5C27 -0.080215 28.4 0.215963 29.7 0.907046C30.8 1.4994 31.5 2.58539 31.6 3.86883C31.6 5.05354 31.5 6.23826 31.2 7.42297C31.2 7.62042 31 7.71915 30.9 7.71915H3.90001ZM34.9 7.71915C35.1 6.13953 35.6 4.55991 36.5 3.17775C37.4 1.79558 38.9 0.80832 40.6 0.413416C41.8 0.117237 42.9 0.0185111 44.1 0.0185111H56.5C58 -0.080215 59.4 0.215963 60.7 0.907046C61.8 1.4994 62.6 2.58539 62.6 3.7701C62.6 4.95482 62.5 6.23826 62.2 7.42297C62.2 7.62042 62 7.71915 61.9 7.71915H34.9Z" fill="#D71112"/>
</svg>
