<svg width="848" height="603" viewBox="0 0 848 603" fill="none" xmlns="http://www.w3.org/2000/svg">
<path d="M624.348 0C629.195 4.93407e-05 634.766 1.46938 639.483 5.3291C644.362 9.32048 647.559 15.2415 648.485 22.6514L648.562 23.2695V24.4756L650.661 180.282L650.662 180.35V180.739C650.662 180.778 650.601 186.457 651.826 192.078C652.449 194.938 653.251 197.021 654.029 198.222C654.083 198.305 654.135 198.377 654.18 198.44C654.43 198.403 654.743 198.352 655.122 198.273C656.296 198.031 658.028 197.575 660.455 196.742C665.328 195.07 672.702 191.982 683.578 186.386L683.59 186.379L683.601 186.373C706.287 174.778 726.127 168.963 745.658 168.963H747.179L747.245 168.964C761.277 169.151 784.112 174.579 804.271 188.902H804.27C821.527 201.13 842.993 224.365 846.719 264.616C849.392 293.313 840.147 321.813 821.21 342.554C804.662 360.716 782.038 371.494 758.742 371.494C756.064 371.494 753.446 371.303 751.245 371.146L751.098 371.136L750.95 371.12L714.282 367.405L714.269 367.404L695.464 365.475C693.33 365.296 692.289 365.194 691.222 365.194C688.646 365.194 687.026 365.519 686.139 365.833C685.961 365.896 685.83 365.952 685.737 365.996C685.295 367.063 683.549 372.897 689.393 390.293L689.397 390.305L689.401 390.315L719.901 481.815L720.154 482.587C722.633 490.508 720.852 496.843 719.021 500.765L718.925 500.973L718.818 501.176C715.775 506.985 710.588 511.228 704.228 513.292L704.229 513.294L589.65 551.379C587.193 552.27 570.474 558.226 554.242 558.226C545.539 558.226 537.695 556.523 531.094 552.653L530.973 552.581C521.971 547.133 516.652 538.264 515.543 527.616L515.539 527.572L515.534 527.528C514.408 515.705 516.497 499.388 521.048 478.423L521.06 478.361L521.075 478.301C525.176 460.481 524.315 445.788 519.283 433.487C514.256 421.199 504.634 410.246 489.329 400.661V400.66C480.391 395.117 468.693 391.848 456.677 391.848C436.19 391.848 411.005 401.624 399.456 428.159L399.448 428.177C396.352 435.255 393.815 443.136 393.765 452.411C393.715 461.617 396.113 472.912 403.985 486.743C404.292 487.28 404.715 488.01 405.245 488.928C405.763 489.824 406.366 490.87 407.012 491.999L410.318 497.706C413.652 503.48 417.016 509.383 419.929 514.791C423.661 521.719 427.168 528.752 428.64 533.796C432.8 548.06 430.351 559.483 423.75 567.82C417.63 575.549 409.004 579.25 403.275 581.034L403.274 581.033C396.735 583.081 382.442 585.348 365.761 587.594C348.634 589.899 327.863 592.317 307.62 594.531C267.129 598.961 228.496 602.602 224.794 602.931L224.352 602.97H222.616C217.773 602.97 212.22 601.503 207.516 597.689C202.644 593.74 199.417 587.867 198.481 580.5L198.401 579.872V578.639L196.464 422.517L196.463 422.454V422.069C196.463 422.031 196.524 416.352 195.299 410.73C194.676 407.871 193.875 405.788 193.097 404.587C193.042 404.503 192.989 404.431 192.944 404.367C192.694 404.405 192.382 404.457 192.003 404.535C190.829 404.778 189.098 405.233 186.671 406.066C181.798 407.739 174.424 410.827 163.548 416.423L163.536 416.43L163.523 416.436C140.838 428.03 120.998 433.846 101.467 433.846H99.9462L99.8798 433.845C85.8473 433.658 63.0131 428.229 42.8544 413.906V413.905C25.5965 401.677 4.12915 378.44 0.405151 338.186L0.403198 338.158L0.400269 338.131C-2.09085 309.483 7.13663 281.205 25.5253 260.653L25.5546 260.62L25.5848 260.587C42.1335 242.419 64.7614 231.638 88.0604 231.638C90.0684 231.638 92.0428 231.745 93.8329 231.865L95.5565 231.986L95.705 231.996L95.8524 232.012L132.52 235.727L132.532 235.728L151.333 237.655C153.47 237.834 154.512 237.937 155.58 237.938C158.155 237.938 159.775 237.613 160.663 237.299C160.841 237.236 160.972 237.178 161.064 237.134C161.507 236.064 163.25 230.228 157.408 212.839L157.404 212.827L157.401 212.816L126.871 121.228V121.227C124.068 112.986 125.899 106.401 127.781 102.367L127.878 102.159L127.984 101.956C131.027 96.1468 136.213 91.9016 142.573 89.8379L257.195 51.7373C259.798 50.7948 276.419 44.9064 292.559 44.9062C300.99 44.9062 308.615 46.5039 315.086 50.1221L315.709 50.4785L315.769 50.5146L315.829 50.5508C324.549 55.8286 329.814 64.3165 331.142 74.5225L331.259 75.5156L331.264 75.5596L331.267 75.6035C332.393 87.427 330.305 103.744 325.755 124.709L325.741 124.77L325.727 124.831C321.627 142.65 322.487 157.343 327.519 169.644C332.546 181.93 342.165 192.882 357.466 202.466C366.405 208.012 378.106 211.284 390.126 211.284C410.612 211.284 435.796 201.507 447.346 174.972L447.349 174.963L447.353 174.955C450.45 167.877 452.987 159.996 453.037 150.721C453.087 141.518 450.69 130.228 442.825 116.403C442.518 115.865 442.092 115.13 441.557 114.204C441.029 113.292 440.414 112.225 439.756 111.073V111.072C435.417 103.6 430.748 95.5318 426.874 88.3408C423.142 81.4127 419.633 74.3798 418.162 69.3359C414.002 55.0721 416.451 43.6489 423.053 35.3115C428.79 28.0656 436.73 24.3601 442.42 22.4551L443.526 22.0977C450.146 20.0017 464.466 17.7189 481.131 15.4688C498.283 13.1528 519.071 10.7339 539.324 8.51953C559.589 6.30382 579.376 4.28591 594.544 2.77246C609.817 1.24842 620.204 0.255636 621.951 0.0615234L622.501 0H624.348ZM148.15 105.466C143.789 106.92 141.366 110.474 143.142 115.643C143.156 115.686 144.608 120.2 147.019 127.272C178.195 163.94 212.44 195.439 238.124 216.6C228.594 226.776 219.225 238.084 210.502 250.521C200.971 245.514 190.31 239.699 178.842 233.076C178.842 246.806 171.895 256.498 150.089 254.398C134.582 252.783 100.013 249.23 94.5214 248.745C89.6754 248.261 84.9909 248.421 80.3065 249.067C119.72 266.836 158.65 279.92 187.725 287.997C181.103 300.758 175.126 314.327 170.119 328.703C131.513 326.28 74.8147 319.496 20.5399 303.827C17.4708 314.004 16.1787 325.311 17.3094 336.941C18.9248 355.356 24.9008 369.733 32.9774 381.04C80.1449 382.171 125.697 377.809 158.004 372.963C156.065 382.655 154.612 392.67 153.481 403.008C154.289 402.523 155.096 402.2 156.065 401.716C171.572 393.801 187.08 387.178 195.156 387.824C214.512 389.76 213.412 422.621 213.409 422.715L215.348 578.917C216.478 587.64 223.425 586.67 223.425 586.67C223.74 586.64 376.902 572.286 398.525 565.348C417.909 559.371 414.517 544.995 412.74 538.856C409.994 529.649 393.518 502.512 389.479 495.404C370.903 462.613 377.042 438.222 384.149 421.746C386.734 415.769 389.803 410.6 393.356 405.754C380.284 363.471 385.915 317.642 385.926 317.558C388.187 350.672 403.21 375.386 412.579 387.985C438.909 371.186 473.961 371.671 498.19 386.854C524.035 403.169 536.151 423.199 539.382 444.521L601.248 471.014L637.755 416.899L536.959 264.736C529.528 245.676 532.435 222.092 532.435 222.092C528.557 220.799 492.859 201.577 461.361 184.455C439.554 230.007 383.018 238.245 348.45 216.6C323.09 200.769 311.136 181.224 307.421 160.387C295.791 167.009 283.353 175.57 270.431 185.908C250.885 161.355 225.847 126.303 203.879 86.8896L148.15 105.466ZM540.027 447.914C541.319 459.221 540.189 470.852 537.604 482.32C536.958 485.712 536.151 488.944 535.505 492.336C549.548 492.497 571.012 487.335 571.042 487.328L540.027 447.914ZM590.91 416.899L611.909 422.554L584.772 427.561L572.496 405.108L590.91 416.899ZM492.537 254.237L507.398 268.452C507.398 268.452 489.791 275.721 482.199 270.875C474.607 265.867 462.331 238.729 462.331 238.729L492.537 254.237ZM314.69 77.0361C312.429 55.7141 283.838 61.2053 270.107 65.082C281.738 99.4884 295.306 130.827 306.936 154.733C305.806 143.588 306.937 132.28 309.521 120.973C313.075 104.497 315.659 88.0203 314.69 77.0361Z" fill="white"/>
</svg>
